<svg xmlns="http://www.w3.org/2000/svg" version="1.0" width="150.000000pt" height="73.000000pt" viewBox="0 0 150.000000 73.000000" preserveAspectRatio="xMidYMid meet" transform="matrix(1, 0, 0, 1, 0, 0)">

<g transform="translate(0.000000,73.000000) scale(0.100000,-0.100000)" fill="#9c27b0" stroke="none">
<path d="M810 486 c0 -20 -20 -30 -33 -17 -16 16 -51 -17 -36 -35 13 -16 4 -34 -17 -34 -23 0 -17 -47 7 -53 17 -5 19 -9 10 -25 -14 -26 9 -47 39 -37 16 5 23 2 27 -14 7 -27 43 -28 50 -1 4 15 13 19 37 17 29 -2 31 0 29 29 -2 24 2 33 17 37 26 7 26 37 -1 44 -16 5 -19 11 -14 30 8 33 -11 56 -36 43 -14 -8 -20 -6 -29 10 -12 23 -50 27 -50 6z m48 -72 c12 -8 22 -26 22 -39 0 -21 -32 -55 -52 -55 -14 0 -48 39 -48 55 0 16 34 55 48 55 4 0 18 -7 30 -16z" fill="#9c27b0"/>
<path d="M456 374 c-22 -21 -24 -285 -2 -303 9 -8 70 -11 197 -9 l184 3 3 82 c2 53 -1 83 -8 83 -6 0 -10 -30 -10 -75 l0 -75 -177 2 -178 3 -3 103 -3 102 126 0 c89 0 125 3 125 12 0 6 -8 29 -17 49 l-18 38 -102 1 c-79 0 -105 -3 -117 -16z m96 -46 c-15 -15 -26 -4 -18 18 5 13 9 15 18 6 9 -9 9 -15 0 -24z m43 2 c-5 -8 -11 -8 -17 -2 -6 6 -7 16 -3 22 5 8 11 8 17 2 6 -6 7 -16 3 -22z m-84 5 c-1 -15 -24 -12 -29 3 -3 9 2 13 12 10 10 -1 17 -7 17 -13z" fill="#9c27b0"/>
<path d="M647 253 c-10 -16 -29 -125 -23 -130 10 -10 15 0 30 65 8 34 10 64 6 67 -5 3 -11 2 -13 -2z" fill="#9c27b0"/>
<path d="M562 217 c-27 -28 -27 -39 -4 -60 30 -27 47 -22 27 9 -15 23 -15 27 -1 43 33 36 11 43 -22 8z" fill="#9c27b0"/>
<path d="M690 226 c0 -7 7 -19 15 -26 14 -12 14 -15 -1 -31 -27 -30 -6 -36 23 -6 l27 26 -24 26 c-26 28 -40 32 -40 11z" fill="#9c27b0"/>
</g>
</svg>